<svg width="27" height="21" viewBox="0 0 27 21" fill="none" xmlns="http://www.w3.org/2000/svg">
<mask id="path-1-inside-1_76_1534" fill="white">
<path fill-rule="evenodd" clip-rule="evenodd" d="M10.8754 18.4369L9.80268 8.97964L23.0298 2.69629L10.8754 18.4369ZM25.8117 0.267659H24.2125H1.48268H0L1.09468 1.26766L8.83049 8.33437L8.72857 8.38279L9.99785 19.5734L10.1597 21L11.0372 19.8636L25.0251 1.74844L25.956 0.542836L26.5319 0.267659H26.1685L26.3752 0L25.8117 0.267659ZM2.57736 1.26766L9.28877 7.39858L22.1197 1.26766H2.57736Z"/>
</mask>
<path fill-rule="evenodd" clip-rule="evenodd" d="M10.8754 18.4369L9.80268 8.97964L23.0298 2.69629L10.8754 18.4369ZM25.8117 0.267659H24.2125H1.48268H0L1.09468 1.26766L8.83049 8.33437L8.72857 8.38279L9.99785 19.5734L10.1597 21L11.0372 19.8636L25.0251 1.74844L25.956 0.542836L26.5319 0.267659H26.1685L26.3752 0L25.8117 0.267659ZM2.57736 1.26766L9.28877 7.39858L22.1197 1.26766H2.57736Z" fill="black"/>
<path d="M9.80268 8.97964L9.37359 8.07638L8.72857 8.38279L8.80905 9.09235L9.80268 8.97964ZM10.8754 18.4369L9.88173 18.5496L10.1597 21L11.6669 19.0481L10.8754 18.4369ZM23.0298 2.69629L23.8213 3.30746L22.6007 1.79302L23.0298 2.69629ZM25.8117 0.267659V1.26766H26.0372L26.2408 1.17092L25.8117 0.267659ZM0 0.267659V-0.732341H-2.57736L-0.674456 1.00597L0 0.267659ZM1.09468 1.26766L1.76914 0.529344V0.529344L1.09468 1.26766ZM8.83049 8.33437L9.25958 9.23764L10.6032 8.59935L9.50495 7.59606L8.83049 8.33437ZM8.72857 8.38279L8.29949 7.47952L7.65446 7.78593L7.73494 8.49549L8.72857 8.38279ZM9.99785 19.5734L9.00422 19.6861L9.99785 19.5734ZM10.1597 21L9.16604 21.1127L9.44397 23.5631L10.9512 21.6112L10.1597 21ZM11.0372 19.8636L10.2457 19.2524V19.2524L11.0372 19.8636ZM25.0251 1.74844L25.8166 2.35961L25.8166 2.35961L25.0251 1.74844ZM25.956 0.542836L25.5249 -0.359451L25.3101 -0.256795L25.1645 -0.0683338L25.956 0.542836ZM26.5319 0.267659L26.9631 1.16995L26.5319 -0.732341V0.267659ZM26.1685 0.267659L25.377 -0.343512L24.1329 1.26766H26.1685V0.267659ZM26.3752 0L27.1667 0.611171L25.9461 -0.903265L26.3752 0ZM9.28877 7.39858L8.61432 8.13689L9.11186 8.5914L9.71991 8.30086L9.28877 7.39858ZM2.57736 1.26766V0.267659H2.2331e-07L1.9029 2.00597L2.57736 1.26766ZM22.1197 1.26766L22.5508 2.16995L22.1197 0.267659V1.26766ZM8.80905 9.09235L9.88173 18.5496L11.869 18.3242L10.7963 8.86694L8.80905 9.09235ZM22.6007 1.79302L9.37359 8.07638L10.2318 9.88291L23.4589 3.59955L22.6007 1.79302ZM11.6669 19.0481L23.8213 3.30746L22.2383 2.08512L10.0839 17.8258L11.6669 19.0481ZM24.2125 1.26766H25.8117V-0.732341H24.2125V1.26766ZM1.48268 1.26766H24.2125V-0.732341H1.48268V1.26766ZM0 1.26766H1.48268V-0.732341H0V1.26766ZM1.76914 0.529344L0.674456 -0.470656L-0.674456 1.00597L0.420228 2.00597L1.76914 0.529344ZM9.50495 7.59606L1.76914 0.529344L0.420228 2.00597L8.15604 9.07269L9.50495 7.59606ZM8.40141 7.43111L8.29949 7.47952L9.15765 9.28606L9.25958 9.23764L8.40141 7.43111ZM7.73494 8.49549L9.00422 19.6861L10.9915 19.4607L9.7222 8.27009L7.73494 8.49549ZM9.00422 19.6861L9.16604 21.1127L11.1533 20.8873L10.9915 19.4607L9.00422 19.6861ZM10.9512 21.6112L11.8287 20.4747L10.2457 19.2524L9.36817 20.3888L10.9512 21.6112ZM11.8287 20.4747L25.8166 2.35961L24.2336 1.13727L10.2457 19.2524L11.8287 20.4747ZM25.8166 2.35961L26.7475 1.15401L25.1645 -0.0683338L24.2336 1.13727L25.8166 2.35961ZM26.1008 -0.634628L25.5249 -0.359451L26.3872 1.44512L26.9631 1.16995L26.1008 -0.634628ZM26.1685 1.26766H26.5319V-0.732341H26.1685V1.26766ZM26.96 0.87883L27.1667 0.611171L25.5837 -0.611171L25.377 -0.343512L26.96 0.87883ZM25.9461 -0.903265L25.3827 -0.635605L26.2408 1.17092L26.8043 0.903265L25.9461 -0.903265ZM9.96323 6.66026L3.25182 0.529344L1.9029 2.00597L8.61432 8.13689L9.96323 6.66026ZM21.6885 0.365372L8.85764 6.49629L9.71991 8.30086L22.5508 2.16995L21.6885 0.365372ZM2.57736 2.26766H22.1197V0.267659H2.57736V2.26766Z" fill="black" mask="url(#path-1-inside-1_76_1534)"/>
</svg>
