<svg width="31" height="31" viewBox="0 0 31 31" fill="none" xmlns="http://www.w3.org/2000/svg">
<path d="M3.875 14.8542C3.87056 16.559 4.26887 18.2408 5.0375 19.7625C5.94886 21.586 7.34991 23.1198 9.08371 24.192C10.8175 25.2642 12.8156 25.8326 14.8542 25.8334C16.559 25.8378 18.2408 25.4395 19.7625 24.6709L27.125 27.125L24.6708 19.7625C25.4395 18.2408 25.8378 16.559 25.8333 14.8542C25.8325 12.8156 25.2642 10.8176 24.192 9.08375C23.1198 7.34994 21.586 5.94889 19.7625 5.03754C18.2408 4.26891 16.559 3.87059 14.8542 3.87504H14.2083C11.5161 4.02357 8.97315 5.15994 7.06653 7.06656C5.1599 8.97319 4.02353 11.5161 3.875 14.2084V14.8542Z" stroke="#1E1E1E" stroke-width="2" stroke-linecap="round" stroke-linejoin="round"/>
</svg>
