<svg width="26" height="22" viewBox="0 0 26 22" fill="none" xmlns="http://www.w3.org/2000/svg">
<path fill-rule="evenodd" clip-rule="evenodd" d="M20 11C20 15.9706 15.9706 20 11 20C6.02944 20 2 15.9706 2 11C2 6.02944 6.02944 2 11 2C15.9706 2 20 6.02944 20 11ZM19.2143 18.3163C17.1997 20.5766 14.2661 22 11 22C4.92487 22 0 17.0751 0 11C0 4.92487 4.92487 0 11 0C17.0751 0 22 4.92487 22 11C22 13.1146 21.4033 15.0898 20.3691 16.7665L25.0758 19.6867C25.5277 19.9671 25.6667 20.5607 25.3863 21.0125C25.106 21.4644 24.5124 21.6034 24.0605 21.3231L19.2143 18.3163Z" fill="black"/>
</svg>
