<svg width="45" height="47" viewBox="0 0 45 47" fill="none" xmlns="http://www.w3.org/2000/svg">
<path d="M22.5 0.381958C10.08 0.381958 0 10.7648 0 23.5579C0 36.3511 10.08 46.7339 22.5 46.7339C34.92 46.7339 45 36.3511 45 23.5579C45 10.7648 34.92 0.381958 22.5 0.381958ZM22.5 9.65234C26.8425 9.65234 30.375 13.291 30.375 17.7639C30.375 22.2369 26.8425 25.8755 22.5 25.8755C18.1575 25.8755 14.625 22.2369 14.625 17.7639C14.625 13.291 18.1575 9.65234 22.5 9.65234ZM22.5 42.0987C17.9325 42.0987 12.5325 40.1983 8.685 35.424C12.4875 32.3648 17.28 30.5107 22.5 30.5107C27.72 30.5107 32.5125 32.3648 36.315 35.424C32.4675 40.1983 27.0675 42.0987 22.5 42.0987Z" fill="black" fill-opacity="0.3"/>
<path d="M8.37158 35.0345L7.98169 35.3481L8.29569 35.7378C12.25 40.6446 17.8013 42.5987 22.5 42.5987C27.1987 42.5987 32.75 40.6446 36.7043 35.7378L37.0183 35.3481L36.6284 35.0345C32.7427 31.9083 27.841 30.0107 22.5 30.0107C17.159 30.0107 12.2573 31.9083 8.37158 35.0345ZM0.5 23.5579C0.5 11.0269 10.37 0.881958 22.5 0.881958C34.63 0.881958 44.5 11.0269 44.5 23.5579C44.5 36.089 34.63 46.2339 22.5 46.2339C10.37 46.2339 0.5 36.089 0.5 23.5579ZM30.875 17.7639C30.875 13.0289 27.1325 9.15234 22.5 9.15234C17.8675 9.15234 14.125 13.0289 14.125 17.7639C14.125 22.499 17.8675 26.3755 22.5 26.3755C27.1325 26.3755 30.875 22.499 30.875 17.7639Z" stroke="black" stroke-opacity="0.1"/>
</svg>
