<svg width="116" height="116" viewBox="0 0 116 116" fill="none" xmlns="http://www.w3.org/2000/svg">
<path fill-rule="evenodd" clip-rule="evenodd" d="M115 58C115 89.4802 89.4802 115 58 115C26.5198 115 1 89.4802 1 58C1 26.5198 26.5198 1 58 1C89.4802 1 115 26.5198 115 58ZM116 58C116 90.0325 90.0325 116 58 116C25.9675 116 0 90.0325 0 58C0 25.9675 25.9675 0 58 0C90.0325 0 116 25.9675 116 58ZM81.1061 81.3906L57.662 62.3939L36.6515 81.2592L35.1515 82.6061V80.5901V34.8939V33.3939H36.6515H81.1061H82.6061V34.8939V80.6754V82.6061L81.1061 81.3906ZM56.6599 61.2778L36.6515 79.2433V34.8939H81.1061V79.46L58.6063 61.2285L57.6121 60.4228L56.6599 61.2778Z" fill="black"/>
</svg>
