<svg width="30" height="27" viewBox="0 0 30 27" fill="none" xmlns="http://www.w3.org/2000/svg">
<mask id="path-1-inside-1_76_295" fill="white">
<path fill-rule="evenodd" clip-rule="evenodd" d="M2.47969 14.1269L3.71702 15.3642L14.6764 26.3236L25.6358 15.3642L26.8731 14.1269C29.8994 11.1005 29.8994 6.19388 26.8731 3.16753C23.8468 0.141187 18.9401 0.141192 15.9137 3.16754L14.6764 4.40488L13.439 3.16753C10.4127 0.14119 5.50602 0.141192 2.47968 3.16754C-0.546664 6.19388 -0.546657 11.1006 2.47969 14.1269Z"/>
</mask>
<path d="M14.6764 26.3236L13.2622 27.7378L14.6764 29.152L16.0906 27.7378L14.6764 26.3236ZM25.6358 15.3642L27.05 16.7785L27.05 16.7785L25.6358 15.3642ZM26.8731 14.1269L25.4589 12.7127L25.4589 12.7127L26.8731 14.1269ZM14.6764 4.40488L13.2622 5.81909L14.6764 7.23331L16.0906 5.81909L14.6764 4.40488ZM5.13124 13.95L3.8939 12.7127L1.06547 15.5411L2.30281 16.7785L5.13124 13.95ZM16.0906 24.9094L5.13124 13.95L2.30281 16.7785L13.2622 27.7378L16.0906 24.9094ZM24.2215 13.95L13.2622 24.9094L16.0906 27.7378L27.05 16.7785L24.2215 13.95ZM25.4589 12.7127L24.2215 13.95L27.05 16.7785L28.2873 15.5411L25.4589 12.7127ZM25.4589 4.58174C27.7042 6.82704 27.7042 10.4674 25.4589 12.7127L28.2873 15.5411C32.0947 11.7337 32.0947 5.56071 28.2873 1.75332L25.4589 4.58174ZM17.3279 4.58175C19.5732 2.33645 23.2136 2.33645 25.4589 4.58174L28.2873 1.75332C24.4799 -2.05408 18.3069 -2.05407 14.4995 1.75332L17.3279 4.58175ZM16.0906 5.81909L17.3279 4.58175L14.4995 1.75332L13.2622 2.99066L16.0906 5.81909ZM12.0248 4.58175L13.2622 5.81909L16.0906 2.99067L14.8533 1.75332L12.0248 4.58175ZM3.89389 4.58175C6.13919 2.33645 9.77953 2.33645 12.0248 4.58175L14.8533 1.75332C11.0459 -2.05407 4.87286 -2.05407 1.06547 1.75332L3.89389 4.58175ZM3.8939 12.7127C1.6486 10.4674 1.6486 6.82704 3.89389 4.58175L1.06547 1.75332C-2.74193 5.56072 -2.74192 11.7337 1.06547 15.5411L3.8939 12.7127Z" fill="black" mask="url(#path-1-inside-1_76_295)"/>
</svg>
