<svg width="22" height="24" viewBox="0 0 22 24" fill="none" xmlns="http://www.w3.org/2000/svg">
<path d="M19.5556 0.592285H2.44444C1.1 0.592285 0 1.72533 0 3.11017V20.7353C0 22.1202 1.1 23.2532 2.44444 23.2532H19.5556C20.9 23.2532 22 22.1202 22 20.7353V3.11017C22 1.72533 20.9 0.592285 19.5556 0.592285ZM19.5556 17.7353C19.5556 19.3922 18.2124 20.7353 16.5556 20.7353H5.44445C3.78759 20.7353 2.44444 19.3922 2.44444 17.7353V6.11017C2.44444 4.45331 3.78759 3.11017 5.44444 3.11017H16.5556C18.2124 3.11017 19.5556 4.45331 19.5556 6.11017V17.7353Z" fill="black"/>
</svg>
